<?xml version="1.0" standalone="no"?>
<!DOCTYPE svg PUBLIC "-//W3C//DTD SVG 20010904//EN"
 "http://www.w3.org/TR/2001/REC-SVG-20010904/DTD/svg10.dtd">
<svg version="1.0" xmlns="http://www.w3.org/2000/svg"
 width="110.000000pt" height="110.000000pt" viewBox="0 0 110.000000 110.000000"
 preserveAspectRatio="xMidYMid meet">
<metadata>
Created by potrace 1.11, written by Peter Selinger 2001-2013
</metadata>
<g transform="translate(0.000000,110.000000) scale(0.100000,-0.100000)"
fill="#000000" stroke="none">
<path d="M396 1067 c-12 -8 -19 -29 -21 -58 -2 -42 0 -46 59 -102 92 -87 118
-88 208 -4 54 49 58 56 60 101 1 37 -3 52 -17 62 -22 16 -46 4 -105 -52 -33
-33 -35 -33 -60 -17 -14 9 -32 24 -40 33 -8 9 -27 24 -41 33 -21 14 -28 15
-43 4z"/>
<path d="M259 1013 c-20 -5 -25 -20 -28 -98 -2 -33 -4 -61 -5 -62 -1 -1 -35
-5 -76 -8 -41 -4 -78 -12 -82 -18 -15 -24 -7 -46 28 -76 35 -32 37 -32 116
-26 125 9 135 20 140 148 2 69 0 78 -22 102 -30 33 -50 43 -71 38z"/>
<path d="M785 1007 c-10 -5 -29 -22 -41 -36 -20 -23 -22 -34 -18 -96 9 -134
17 -142 144 -149 l84 -5 33 35 c36 39 43 70 15 78 -9 3 -46 9 -82 12 -36 3
-66 7 -67 8 -2 1 -5 45 -12 142 -1 17 -35 23 -56 11z"/>
<path d="M21 696 c-33 -14 -25 -47 24 -100 43 -47 54 -70 37 -78 -4 -1 -24
-22 -44 -46 -60 -67 -47 -95 43 -94 32 1 44 8 76 43 21 23 43 47 49 53 16 17
31 49 28 64 -1 6 -2 18 -3 25 0 8 -26 41 -56 74 -46 52 -61 61 -94 65 -22 2
-49 -1 -60 -6z"/>
<path d="M948 686 c-127 -131 -131 -154 -37 -253 48 -51 60 -59 88 -57 95 6
103 28 36 102 -25 27 -45 56 -45 63 1 8 19 32 40 54 46 46 57 70 40 90 -16 19
-104 20 -122 1z"/>
<path d="M94 328 c-33 -29 -45 -70 -24 -83 5 -3 42 -8 82 -11 40 -3 74 -7 75
-8 1 -1 3 -32 4 -70 3 -99 29 -119 87 -65 34 32 35 36 33 119 -4 121 -19 137
-141 143 -80 4 -83 4 -116 -25z"/>
<path d="M824 350 c-81 -8 -89 -21 -98 -155 -4 -58 -3 -62 32 -97 59 -62 81
-49 89 53 3 41 6 75 7 76 2 2 31 4 67 6 35 2 72 7 82 12 27 11 20 41 -17 77
-37 35 -58 39 -162 28z"/>
<path d="M469 202 c-81 -68 -88 -77 -92 -112 -11 -90 32 -103 110 -35 l52 45
38 -32 c21 -18 44 -39 51 -45 17 -16 58 -17 68 -2 3 6 7 30 7 54 0 40 -4 47
-53 92 -95 86 -116 90 -181 35z"/>
</g>
</svg>
